<svg width="114" height="113" viewBox="0 0 114 113" fill="none" xmlns="http://www.w3.org/2000/svg">
<rect x="4.49365" y="4" width="105" height="105" rx="52.5" fill="black"/>
<rect x="4.49365" y="4" width="105" height="105" rx="52.5" stroke="black" stroke-width="8"/>
<path d="M57.0014 32.6454C64.7771 32.6454 65.6898 32.6801 68.7631 32.8187C71.6053 32.9458 73.142 33.4195 74.1702 33.8239C75.5336 34.3554 76.5041 34.9793 77.5208 35.996C78.5376 37.0127 79.173 37.9832 79.6929 39.3466C80.0858 40.3749 80.571 41.9115 80.6981 44.7537C80.8368 47.827 80.8714 48.7398 80.8714 56.5154C80.8714 64.2911 80.8368 65.2038 80.6981 68.2771C80.571 71.1193 80.0973 72.656 79.6929 73.6843C79.1615 75.0476 78.5376 76.0181 77.5208 77.0349C76.5041 78.0516 75.5336 78.687 74.1702 79.207C73.142 79.5998 71.6053 80.085 68.7631 80.2121C65.6898 80.3508 64.7771 80.3854 57.0014 80.3854C49.2257 80.3854 48.313 80.3508 45.2397 80.2121C42.3975 80.085 40.8608 79.6113 39.8325 79.207C38.4692 78.6755 37.4987 78.0516 36.482 77.0349C35.4652 76.0181 34.8298 75.0476 34.3098 73.6843C33.917 72.656 33.4318 71.1193 33.3047 68.2771C33.166 65.2038 33.1314 64.2911 33.1314 56.5154C33.1314 48.7398 33.166 47.827 33.3047 44.7537C33.4318 41.9115 33.9055 40.3749 34.3098 39.3466C34.8413 37.9832 35.4652 37.0127 36.482 35.996C37.4987 34.9793 38.4692 34.3438 39.8325 33.8239C40.8608 33.4311 42.3975 32.9458 45.2397 32.8187C48.313 32.6685 49.2373 32.6454 57.0014 32.6454ZM57.0014 27.4C49.0986 27.4 48.105 27.4347 44.9971 27.5733C41.9007 27.712 39.7863 28.2088 37.9377 28.9251C36.0198 29.6646 34.4023 30.6697 32.7848 32.2873C31.1672 33.9048 30.1736 35.5339 29.4226 37.4402C28.7063 39.2888 28.2095 41.4031 28.0708 44.5111C27.9322 47.6075 27.8975 48.6011 27.8975 56.5039C27.8975 64.4066 27.9322 65.4002 28.0708 68.5082C28.2095 71.6046 28.7063 73.7189 29.4226 75.5791C30.1621 77.497 31.1672 79.1145 32.7848 80.732C34.4023 82.3496 36.0314 83.3432 37.9377 84.0942C39.7863 84.8105 41.9007 85.3073 45.0086 85.446C48.1166 85.5846 49.0986 85.6193 57.0129 85.6193C64.9273 85.6193 65.9093 85.5846 69.0173 85.446C72.1137 85.3073 74.228 84.8105 76.0882 84.0942C78.0061 83.3547 79.6236 82.3496 81.2411 80.732C82.8587 79.1145 83.8523 77.4854 84.6033 75.5791C85.3196 73.7305 85.8164 71.6161 85.9551 68.5082C86.0937 65.4002 86.1284 64.4182 86.1284 56.5039C86.1284 48.5896 86.0937 47.6075 85.9551 44.4995C85.8164 41.4031 85.3196 39.2888 84.6033 37.4287C83.8638 35.5107 82.8587 33.8932 81.2411 32.2757C79.6236 30.6582 77.9945 29.6646 76.0882 28.9136C74.2396 28.1972 72.1252 27.7004 69.0173 27.5618C65.8978 27.4347 64.9041 27.4 57.0014 27.4Z" fill="white"/>
<path d="M57.0014 41.5648C48.752 41.5648 42.0508 48.2544 42.0508 56.5153C42.0508 64.7763 48.7405 71.4659 57.0014 71.4659C65.2623 71.4659 71.9519 64.7763 71.9519 56.5153C71.9519 48.2544 65.2623 41.5648 57.0014 41.5648ZM57.0014 66.2089C51.6404 66.2089 47.2962 61.8647 47.2962 56.5038C47.2962 51.1429 51.6404 46.7987 57.0014 46.7987C62.3623 46.7987 66.7065 51.1429 66.7065 56.5038C66.7065 61.8647 62.3623 66.2089 57.0014 66.2089Z" fill="white"/>
<path d="M72.5411 44.4533C74.4682 44.4533 76.0304 42.8911 76.0304 40.9641C76.0304 39.037 74.4682 37.4749 72.5411 37.4749C70.6141 37.4749 69.0519 39.037 69.0519 40.9641C69.0519 42.8911 70.6141 44.4533 72.5411 44.4533Z" fill="white"/>
</svg>
