<svg width="115" height="113" viewBox="0 0 115 113" fill="none" xmlns="http://www.w3.org/2000/svg">
<rect x="4.49365" y="4" width="106.141" height="105" rx="52.5" fill="black"/>
<rect x="4.49365" y="4" width="106.141" height="105" rx="52.5" stroke="black" stroke-width="8"/>
<path d="M71.2485 47.0605C75.6663 50.1929 81.0783 52.0359 86.9235 52.0359V40.8792C85.8173 40.8794 84.7139 40.765 83.6316 40.5375V49.3195C77.7869 49.3195 72.3756 47.4764 67.9567 44.3443V67.1119C67.9567 78.5014 58.6483 87.7338 47.1664 87.7338C42.8822 87.7338 38.9003 86.4491 35.5925 84.2458C39.3678 88.0747 44.6328 90.45 50.4575 90.45C61.9401 90.45 71.249 81.2176 71.249 69.8276V47.0605H71.2485ZM75.3094 35.8047C73.0517 33.3582 71.5693 30.1964 71.2485 26.701V25.266H68.1291C68.9143 29.7087 71.5925 33.5043 75.3094 35.8047ZM42.8548 75.5058C41.5933 73.8653 40.9117 71.8585 40.9147 69.795C40.9147 64.5859 45.1724 60.3622 50.4251 60.3622C51.404 60.362 52.3771 60.5107 53.31 60.8043V49.3982C52.2198 49.25 51.1195 49.1871 50.0196 49.2102V58.0881C49.086 57.7945 48.1124 57.6454 47.1333 57.6463C41.8805 57.6463 37.6231 61.8695 37.6231 67.0793C37.6231 70.763 39.7512 73.9522 42.8548 75.5058Z" fill="#FF004F"/>
<path d="M67.9566 44.3441C72.3755 47.4762 77.7868 49.3192 83.6315 49.3192V40.5373C80.369 39.848 77.4808 38.1569 75.3093 35.8047C71.5922 33.504 68.9142 29.7085 68.1289 25.266H59.9349V69.8272C59.9164 75.0221 55.666 79.2285 50.4245 79.2285C47.3358 79.2285 44.5918 77.7681 42.8539 75.5058C39.7507 73.9522 37.6226 70.7628 37.6226 67.0795C37.6226 61.8702 41.8799 57.6465 47.1327 57.6465C48.1391 57.6465 49.1091 57.8019 50.019 58.0883V49.2104C38.7389 49.4416 29.6669 58.5838 29.6669 69.8274C29.6669 75.4401 31.926 80.5283 35.5926 84.2461C38.9004 86.4491 42.8824 87.734 47.1665 87.734C58.6486 87.734 67.9568 78.5012 67.9568 67.1119V44.3441H67.9566Z" fill="white"/>
<path d="M83.6316 40.5373V38.1628C80.6896 38.1672 77.8054 37.3499 75.3093 35.8045C77.5189 38.204 80.4285 39.8585 83.6316 40.5373ZM68.129 25.266C68.0541 24.8414 67.9966 24.414 67.9567 23.985V22.55H56.6429V67.1117C56.6248 72.3059 52.3747 76.5123 47.1328 76.5123C45.5938 76.5123 44.1408 76.15 42.854 75.5061C44.5919 77.7681 47.3359 79.2283 50.4246 79.2283C55.6656 79.2283 59.9167 75.0223 59.935 69.8274V25.266H68.129ZM50.0196 49.2104V46.6825C49.0742 46.5544 48.1211 46.49 47.1668 46.4905C35.6838 46.4903 26.3753 55.7231 26.3753 67.1117C26.3753 74.2517 30.0337 80.5442 35.5929 84.2456C31.9263 80.5281 29.6672 75.4397 29.6672 69.8272C29.6672 58.5838 38.7389 49.4416 50.0196 49.2104Z" fill="#00F2EA"/>
</svg>
